[img]http://img705.imageshack.us/img705/3341/71740.jpg[/img]

Aka  Battleground.
 
http://www.imdb.com/title/tt1754506/
 
http://www.moviemeter.nl/film/71740

Subs: Dutch.

Source: Skeleton Lake 2012 R4 NTSC DVDR-TDP

General
Complete name                    : Skeleton Lake-AC3-XviD-DVDRip 2012\Skeleton Lake-AC3-XviD-DVDRip 2012.avi
Format                           : AVI
Format/Info                      : Audio Video Interleave
File size                        : 1.33 GiB
Duration                         : 1h 25mn
Overall bit rate                 : 2 236 Kbps
Writing application              : VirtualDubMod 1.5.4.1 (build 2178/release)
Writing library                  : VirtualDubMod build 2178/release

Video
ID                               : 0
Format                           : MPEG-4 Visual
Format profile                   : Simple@L3
Format settings, BVOP            : No
Format settings, QPel            : No
Format settings, GMC             : No warppoints
Format settings, Matrix          : Default (H.263)
Codec ID                         : XVID
Codec ID/Hint                    : XviD
Duration                         : 1h 25mn
Bit rate                         : 1 778 Kbps
Width                            : 720 pixels
Height                           : 304 pixels
Display aspect ratio             : 2.35:1
Frame rate                       : 23.976 fps
Resolution                       : 8 bits
Colorimetry                      : 4:2:0
Scan type                        : Progressive
Bits/(Pixel*Frame)               : 0.339
Stream size                      : 1.06 GiB (80%)
Writing library                  : XviD 1.1.2 (UTC 2006-11-01)

Audio
ID                               : 1
Format                           : AC-3
Format/Info                      : Audio Coding 3
Codec ID                         : 2000
Duration                         : 1h 25mn
Bit rate mode                    : Constant
Bit rate                         : 448 Kbps
Channel(s)                       : 6 channels
Channel positions                : Front: L C R, Surround: L R, LFE
Sampling rate                    : 48.0 KHz
Stream size                      : 274 MiB (20%)
Alignment                        : Split accross interleaves
Interleave, duration             : 42 ms (1.00 video frame)
Interleave, preload duration     : 500 ms

Enjoy...

Thanks to Simply ReleaseS Toppers!

[img]http://img28.imageshack.us/img28/3047/skeletonlakeac3xviddvdr.jpg[/img]